<svg width="88" height="20" viewBox="0 0 88 20" fill="none" xmlns="http://www.w3.org/2000/svg">
<g clip-path="url(#clip0_2447_424)">
<path d="M-0.215893 9.93245C-0.926487 9.33511 -1.67449 8.77761 -2.45989 8.25982C-12.2212 1.72872 -22.2817 -4.28475 -32.5667 -9.93978C-33.7261 -10.577 -34.8855 -11.2142 -36.0823 -11.6522C-36.4563 -11.7717 -36.5685 -11.692 -36.6059 -11.2938C-36.7555 -9.9796 -36.7929 -8.62558 -36.8303 -7.31138C-36.9425 -4.28475 -36.9799 -1.25811 -37.0173 1.76855C-37.0547 7.22447 -37.0921 12.6804 -36.9799 18.1363C-36.9425 20.6053 -36.9051 23.0744 -36.8677 25.5037C-36.8303 27.2958 -36.7181 29.0481 -36.6059 30.8401C-36.5685 31.4375 -36.5685 32.0349 -36.2693 32.5526H-35.8205C-34.3245 31.9553 -32.9033 31.2783 -31.5195 30.4818C-22.02 25.2647 -12.7822 19.5301 -3.73146 13.437C-2.5347 12.6406 -1.33784 11.8042 -0.253296 10.8484C0.232975 10.4502 0.232975 10.3308 -0.215893 9.93245ZM-3.02086 10.8484C-3.95589 11.6051 -4.92822 12.2423 -5.93805 12.8794C-11.2115 16.2247 -16.597 19.331 -21.9826 22.4373C-25.8347 24.6674 -29.7243 26.8577 -33.5765 29.0878C-33.9131 29.287 -34.3619 29.2472 -34.6237 29.6455C-34.7359 29.8048 -34.8107 29.6455 -34.8481 29.4861C-34.8855 29.0481 -34.9603 28.6498 -34.9977 28.2118C-35.0725 26.7383 -35.1473 25.2647 -35.1847 23.7912C-35.3343 16.0255 -35.3343 8.29965 -35.2595 0.533933C-35.2221 -2.09441 -35.1847 -4.68299 -35.0351 -7.31138C-34.9977 -7.6698 -34.9603 -8.02822 -34.9229 -8.38664C-34.9229 -8.5061 -34.9229 -8.6654 -34.7733 -8.70523C-34.6237 -8.78488 -34.5863 -8.58575 -34.5115 -8.50611C-34.4367 -8.42647 -34.3619 -8.38664 -34.3245 -8.30699C-34.2497 -8.14769 -34.1375 -8.06804 -33.9505 -7.94857C-34.0627 -8.10787 -34.1001 -8.22734 -34.1375 -8.30699C-33.0903 -7.8291 -32.0805 -7.19191 -31.0707 -6.63438C-24.077 -2.69179 -17.1579 1.29059 -10.3138 5.39251C-8.06983 6.7465 -5.82584 8.10061 -3.65665 9.61393C-3.39481 9.81296 -3.17049 10.0121 -2.94605 10.1714C-2.64681 10.4502 -2.75903 10.6493 -3.02086 10.8484Z" fill="#7BDBD4"/>
<path d="M63.4398 6.9052C64.3 5.90956 65.2723 5.43171 66.3944 5.23256C67.3294 5.07336 68.3017 5.07336 69.2368 5.35205C71.032 5.86973 72.1539 7.22384 72.3036 9.17517C72.4907 11.6045 72.3409 14.0337 72.378 16.463C72.378 16.6622 72.3036 16.7816 72.0791 16.7816C71.5556 16.7816 71.0319 16.7816 70.5083 16.7816C70.1718 16.7816 70.2466 16.5825 70.2466 16.3834C70.2466 14.3921 70.2466 12.4009 70.2466 10.4496C70.2466 10.0513 70.2092 9.6133 70.097 9.21499C69.6855 7.50253 68.3765 6.98486 66.8057 7.06452C66.357 7.10435 65.9082 7.18401 65.4968 7.34333C64.2626 7.861 63.5146 9.05568 63.5146 10.6486C63.5146 12.5204 63.5146 14.3921 63.5146 16.2639C63.5146 16.7019 63.4024 16.8612 62.991 16.8214C62.617 16.7816 62.2056 16.7816 61.8316 16.8214C61.495 16.8612 61.3828 16.7417 61.3828 16.3435C61.3828 13.5957 61.3828 10.808 61.3828 8.06015C61.3828 7.26367 61.3828 6.50701 61.3828 5.71052C61.3828 5.39188 61.4576 5.27239 61.7942 5.27239C62.2056 5.31222 62.617 5.31222 63.0657 5.27239C63.4024 5.23256 63.4772 5.39188 63.4398 5.71052C63.4398 6.06888 63.4398 6.42735 63.4398 6.9052Z" fill="#7BDBD4"/>
<path d="M14.0335 6.8635C15.8288 5.07149 17.8483 4.83251 20.0175 5.42985C21.7006 5.90781 22.8599 7.46095 22.9347 9.37245C23.0095 11.7221 22.9721 14.1115 22.9721 16.4612C22.9721 16.74 22.8599 16.7798 22.6355 16.7798C22.1867 16.7798 21.7753 16.74 21.3265 16.7798C20.9526 16.8195 20.8403 16.7002 20.8403 16.3019C20.8778 14.3107 20.8403 12.3194 20.8403 10.2884C20.8403 9.45211 20.6907 8.6158 20.0923 7.9388C19.3817 7.10248 18.4093 6.94316 17.4369 7.02282C16.8759 7.06265 16.3523 7.14231 15.8288 7.42112C14.7441 8.01846 14.1832 8.97427 14.1458 10.2486C14.0709 12.2398 14.1083 14.231 14.1083 16.1824C14.1083 16.6603 13.9587 16.7798 13.5474 16.74C13.1733 16.7002 12.762 16.7002 12.3879 16.74C12.0514 16.7798 11.9766 16.6205 11.9766 16.3019C11.9766 13.7132 11.9766 11.0849 11.9766 8.49631C11.9766 7.5405 11.9766 6.58481 11.9766 5.629C11.9766 5.31036 12.0514 5.2307 12.3505 5.2307C12.762 5.27053 13.1733 5.27053 13.6222 5.2307C13.9213 5.2307 14.0709 5.31036 14.0335 5.66883C13.9961 6.06702 14.0335 6.42549 14.0335 6.8635Z" fill="#7BDBD4"/>
<path d="M49.3793 15.1101C48.7435 15.8667 48.0702 16.3446 47.2475 16.6234C45.8263 17.1012 44.3677 17.0614 42.9838 16.4243C41.3757 15.7074 40.5903 14.3534 40.5155 12.5613C40.4407 10.2515 40.4781 7.94171 40.4781 5.63191C40.4781 5.39293 40.5529 5.31327 40.7772 5.31327C41.2261 5.31327 41.7123 5.3531 42.1611 5.31327C42.4977 5.31327 42.5725 5.43276 42.5725 5.7514C42.5725 7.70273 42.5725 9.694 42.5725 11.6453C42.5725 12.1232 42.6099 12.641 42.7595 13.079C43.1335 14.2738 43.9937 14.8711 45.153 14.9906C46.6864 15.1896 48.3695 14.6321 48.9678 12.8798C49.1549 12.3223 49.2297 11.7648 49.2297 11.2073C49.2297 9.41519 49.2297 7.62307 49.2297 5.83106C49.2297 5.39293 49.3419 5.27344 49.7532 5.27344C50.2021 5.31327 50.6135 5.27344 51.0622 5.27344C51.2866 5.27344 51.3614 5.3531 51.3614 5.59208C51.3614 9.21604 51.3614 12.84 51.3614 16.4243C51.3614 16.7031 51.2492 16.7826 51.0248 16.7428C50.576 16.7428 50.1647 16.7428 49.7158 16.7428C49.4167 16.7428 49.3419 16.6234 49.3793 16.3446C49.3793 16.026 49.3793 15.6278 49.3793 15.1101Z" fill="#7BDBD4"/>
<path d="M32.6624 2.84372C32.0266 2.40571 31.3908 2.28622 30.6802 2.32605C29.8948 2.40571 29.3339 2.92338 29.2217 3.7597C29.1842 4.19783 29.1842 4.59601 29.1842 5.03415C29.1842 5.31284 29.3339 5.27301 29.5209 5.27301C30.4184 5.27301 31.2786 5.27301 32.1762 5.27301C32.4755 5.27301 32.5876 5.35267 32.5502 5.67131C32.5129 6.10933 32.6998 6.627 32.4755 6.90581C32.2511 7.18463 31.7275 6.98547 31.316 6.98547C30.7925 6.98547 30.2315 7.0253 29.7078 6.98547C29.2965 6.94564 29.2217 7.10496 29.2217 7.50315C29.2217 10.4104 29.2217 13.3175 29.2217 16.2247C29.2217 16.6627 29.1468 16.822 28.6981 16.7822C28.324 16.7423 27.9127 16.7423 27.5386 16.7822C27.2021 16.822 27.1273 16.7025 27.1273 16.3442C27.1273 14.3132 27.1273 12.2422 27.1273 10.2113C27.1273 9.29527 27.1273 8.3793 27.1273 7.46332C27.1273 7.10496 27.0151 6.98548 26.6785 7.0253C26.2671 7.06514 25.8557 7.0253 25.4816 7.0253C25.2573 7.0253 25.1451 6.98547 25.1451 6.70666C25.1077 5.31284 25.0703 5.31284 26.4167 5.31284C27.1273 5.31284 27.1273 5.31284 27.1273 4.55619C27.0899 3.32168 27.3517 2.24639 28.2866 1.4499C29.2217 0.653413 30.3063 0.494092 31.4657 0.613582C32.0266 0.653412 32.5876 0.812733 33.0739 1.09154C33.2235 1.17109 33.3356 1.25075 33.2608 1.48973C33.0365 1.92786 32.8868 2.36588 32.6624 2.84372Z" fill="#7BDBD4"/>
<path d="M82.0704 14.5864C82.2574 15.0245 82.4444 15.4625 82.6315 15.9006C82.743 16.1395 82.5932 16.2192 82.4444 16.2989C81.5837 16.8564 80.6114 17.0157 79.639 16.8962C78.6667 16.8165 77.7688 16.498 77.1333 15.6219C76.6849 14.9847 76.4979 14.2679 76.4979 13.4714C76.4979 11.4801 76.4979 9.48894 76.4979 7.45784C76.4979 7.09948 76.4224 6.98 76.0855 7.01983C75.6743 7.05966 75.263 7.01983 74.889 7.01983C74.6276 7.01983 74.5149 6.98 74.5149 6.66135C74.5521 6.22334 74.3279 5.66583 74.5904 5.38702C74.8146 5.10821 75.3385 5.30736 75.7497 5.30736C76.4979 5.30736 76.4979 5.30736 76.4979 4.51087C76.4979 4.03303 76.4979 3.55507 76.4979 3.07722C76.4979 2.79841 76.5722 2.71875 76.8336 2.71875C77.3203 2.71875 77.8059 2.71875 78.2555 2.71875C78.5169 2.71875 78.6295 2.79841 78.6295 3.11705C78.6295 3.67456 78.6295 4.27189 78.6295 4.82952C78.6295 5.18787 78.7039 5.30736 79.0408 5.30736C79.8632 5.26753 80.6857 5.30736 81.5093 5.30736C81.8451 5.30736 81.9206 5.38702 81.9206 5.74549C81.8834 6.18351 82.1076 6.70118 81.8451 6.97999C81.6209 7.21898 81.0981 7.05965 80.724 7.05965C80.1247 7.05965 79.5647 7.05965 78.9653 7.05965C78.7411 7.05965 78.6667 7.13932 78.6667 7.37818C78.6667 9.40928 78.6667 11.4801 78.6667 13.5112C78.6667 14.7059 79.639 15.343 80.8728 15.1041C81.3223 15.0245 81.6963 14.8254 82.0704 14.5864Z" fill="#7BDBD4"/>
<path d="M36.6223 8.77527C36.6223 11.2842 36.6223 13.7931 36.6223 16.302C36.6223 16.7003 36.5101 16.8197 36.1362 16.8197C35.6873 16.7798 35.2759 16.8197 34.8272 16.8197C34.5653 16.8197 34.4531 16.7401 34.4531 16.4215C34.4531 15.7047 34.4531 14.948 34.4531 14.2312C34.4531 9.89028 34.4531 5.54949 34.4531 1.20871C34.4531 0.770574 34.5653 0.651083 34.9393 0.690913C35.3508 0.730743 35.7621 0.730743 36.1362 0.690913C36.4727 0.651083 36.5849 0.770573 36.5849 1.12904C36.6223 3.67771 36.6223 6.22649 36.6223 8.77527Z" fill="#7BDBD4"/>
<path d="M55.3281 11.0077C55.3281 9.25538 55.3281 7.50308 55.3281 5.71108C55.3281 5.3526 55.4403 5.23311 55.7769 5.27294C56.1883 5.31277 56.5997 5.31277 56.9736 5.27294C57.3477 5.23311 57.4599 5.3526 57.4599 5.79074C57.4225 9.01651 57.4599 12.2422 57.4599 15.4679C57.4599 15.9061 57.6468 16.4238 57.3851 16.7026C57.1233 16.9813 56.6371 16.7821 56.2256 16.7821C55.3281 16.7821 55.3281 16.7821 55.3281 15.8663C55.3281 14.2733 55.3281 12.6405 55.3281 11.0077Z" fill="#7BDBD4"/>
<path d="M8.05366 11.0878C8.05366 12.84 8.05366 14.5923 8.05366 16.3446C8.05366 16.7427 7.94144 16.8622 7.56738 16.8622C7.15603 16.8224 6.74468 16.8224 6.37063 16.8622C5.99668 16.9021 5.92187 16.7427 5.92187 16.3844C5.92187 13.6365 5.92187 10.9285 5.92187 8.18055C5.92188 7.38406 5.92188 6.54786 5.92188 5.75137C5.92188 5.3929 6.03409 5.31324 6.33322 5.35307C6.78209 5.3929 7.19344 5.3929 7.6422 5.35307C7.97885 5.31324 8.09106 5.43273 8.05366 5.7912C8.01625 7.50355 8.05366 9.29567 8.05366 11.0878Z" fill="#7BDBD4"/>
<path d="M6.96806 3.12281C6.18265 3.12281 5.54688 2.52548 5.54688 1.76882C5.54688 0.972336 6.18265 0.375 6.96806 0.375C7.79087 0.375 8.42665 0.972336 8.38925 1.72899C8.38925 2.48565 7.75346 3.12281 6.96806 3.12281Z" fill="#7BDBD4"/>
<path d="M56.3743 0.375C57.1971 0.375 57.7955 0.972336 57.7955 1.72899C57.7955 2.48565 57.1597 3.12281 56.3743 3.12281C55.5889 3.12281 54.9531 2.48565 54.9531 1.72899C54.9531 0.932506 55.5889 0.375 56.3743 0.375Z" fill="#7BDBD4"/>
</g>
<defs>
<clipPath id="clip0_2447_424">
<rect width="88" height="20" fill="white"/>
</clipPath>
</defs>
</svg>
