<svg width="29" height="32" viewBox="0 0 29 32" fill="none" xmlns="http://www.w3.org/2000/svg">
<g clip-path="url(#clip0_2447_401)">
<path d="M28.2803 15.7231C27.7348 15.2923 27.1606 14.8903 26.5576 14.5169C19.0641 9.80716 11.3409 5.47068 3.44532 1.39269C2.55528 0.933197 1.66524 0.473706 0.746485 0.157804C0.459376 0.0716497 0.373243 0.129086 0.344532 0.416269C0.229688 1.36398 0.200977 2.34039 0.172266 3.28809C0.0861325 5.47068 0.0574219 7.65327 0.0287109 9.83588C-5.63015e-08 13.7703 -0.0287109 17.7047 0.057422 21.6391C0.0861333 23.4196 0.114844 25.2001 0.143555 26.9519C0.172266 28.2443 0.258399 29.5079 0.344532 30.8002C0.373243 31.2309 0.373243 31.6618 0.602931 32.0351H0.947462C2.0959 31.6043 3.18692 31.1161 4.24923 30.5418C11.5418 26.7796 18.6335 22.6442 25.5815 18.2503C26.5002 17.676 27.419 17.0729 28.2516 16.3836C28.6249 16.0965 28.6249 16.0103 28.2803 15.7231ZM26.127 16.3836C25.4092 16.9293 24.6627 17.3887 23.8875 17.8482C19.8392 20.2606 15.7049 22.5006 11.5705 24.7406C8.61333 26.3488 5.62735 27.9283 2.67012 29.5366C2.41172 29.6802 2.06719 29.6514 1.86622 29.9387C1.78008 30.0536 1.72266 29.9387 1.69395 29.8238C1.66524 29.5079 1.60781 29.2207 1.57911 28.9048C1.52168 27.8423 1.46426 26.7796 1.43555 25.717C1.3207 20.117 1.3207 14.5456 1.37812 8.94556C1.40684 7.05019 1.43555 5.1835 1.55039 3.28809C1.57911 3.02963 1.60781 2.77116 1.63653 2.5127C1.63653 2.42655 1.63653 2.31168 1.75137 2.28296C1.86622 2.22552 1.89492 2.36911 1.95235 2.42654C2.00977 2.48398 2.06719 2.5127 2.0959 2.57014C2.15332 2.68501 2.23946 2.74245 2.38301 2.8286C2.29688 2.71373 2.26816 2.62758 2.23946 2.57014C3.04336 2.91476 3.81856 3.37425 4.59376 3.7763C9.9627 6.61941 15.2743 9.49121 20.5283 12.4492C22.251 13.4256 23.9737 14.4021 25.6389 15.4934C25.8399 15.6369 26.0121 15.7805 26.1844 15.8954C26.4141 16.0965 26.328 16.24 26.127 16.3836Z" fill="#7BDBD4"/>
<path d="M16.2204 16.3874C11.885 20.4654 7.54964 24.5721 3.243 28.6501C3.21428 28.6788 3.18557 28.7075 3.12815 28.7363C3.04201 28.765 3.01331 28.7363 3.04201 28.6501C4.53498 26.4675 5.91312 24.2562 7.23382 21.9875C8.12386 20.4367 8.98519 18.8858 9.76042 17.2776C10.1336 16.4736 10.1336 15.7843 9.76042 15.0089C8.41097 12.2232 6.83186 9.55243 5.19534 6.91036C4.50628 5.79035 3.7885 4.69906 3.04201 3.60777C3.01331 3.55033 3.04201 3.52161 3.12815 3.55033C4.27659 4.61291 5.42503 5.7042 6.57347 6.76677C9.76042 9.78221 12.976 12.855 16.2204 15.8705C16.4214 16.1002 16.4214 16.1863 16.2204 16.3874Z" fill="#7BDBD4"/>
</g>
<defs>
<clipPath id="clip0_2447_401">
<rect width="28.6536" height="32" fill="white"/>
</clipPath>
</defs>
</svg>
